<svg width="29" height="42" viewBox="0 0 29 42" fill="none" xmlns="http://www.w3.org/2000/svg">
<path d="M25.3036 18.8816C24.3896 19.8314 23.2961 20.5903 22.0867 21.1143C20.8771 21.6383 19.5757 21.9171 18.2576 21.9344H17.4615V19.3768C17.4615 18.9255 17.4615 16.4933 17.4615 16.4933C18.2129 16.5001 18.9562 16.3381 19.6365 16.0191C20.3168 15.7001 20.9167 15.2323 21.392 14.6503C22.1835 13.7395 22.6276 12.5782 22.6457 11.3718C22.6457 9.86383 22.0467 8.41765 20.9804 7.35136C19.9141 6.28512 18.468 5.68608 16.96 5.68608H9.91406C9.91406 5.6422 10.1209 5.10936 10.146 5.05922C10.2338 4.89623 10.3278 4.73951 10.4281 4.5828L10.5033 4.46369C10.5973 4.32578 10.6914 4.18787 10.7979 4.04996C11.1304 3.60595 11.495 3.18692 11.8887 2.79623C12.0329 2.65205 12.1833 2.50787 12.34 2.37623C12.4967 2.24459 12.76 2.00638 12.9669 1.83713C13.1738 1.66787 13.3493 1.52996 13.5373 1.39832C13.7254 1.26668 13.9135 1.14757 14.1078 1.0222C14.3021 0.896827 14.5278 0.777723 14.7347 0.658618L14.7973 0.627275C15.0356 0.501902 15.28 0.376529 15.5245 0.276231C15.6563 0.214029 15.7925 0.161648 15.932 0.119514C16.1553 0.0390469 16.3905 -0.00333454 16.6278 -0.00585938H18.0821C19.2045 -0.00361313 20.3188 0.18492 21.3794 0.552052C22.7439 1.02312 23.9966 1.77063 25.059 2.74786C26.1214 3.72509 26.9708 4.91101 27.5541 6.23145C28.0152 7.30936 28.2866 8.45878 28.3564 9.62907C28.5821 12.9264 27.6544 16.4807 25.3036 18.8816Z" fill="url(#paint0_linear_4441_69857)"/>
<path d="M16.6503 0C16.4132 0.00455061 16.1783 0.0468731 15.9545 0.125374C15.816 0.170427 15.68 0.222739 15.547 0.28209C15.3025 0.382389 15.0581 0.507761 14.8198 0.633134L14.7572 0.664478C14.544 0.783582 14.3309 0.902687 14.1303 1.02806C13.9297 1.15343 13.7855 1.24119 13.6288 1.35403L13.3781 1.54209L13.1398 1.72388C13.0871 1.76009 13.0368 1.79988 12.9894 1.84299C12.7763 2.01224 12.5631 2.19403 12.3625 2.38209C12.1619 2.57015 12.0554 2.65791 11.9112 2.80209C11.5175 3.19278 11.1529 3.61181 10.8204 4.05582C10.7139 4.19373 10.6198 4.33164 10.5258 4.46955L10.4506 4.58866C10.3503 4.74537 10.2563 4.90209 10.1685 5.06507C10.1367 5.12408 9.93656 5.64806 9.93656 5.69194H8.51358H8.26283C7.772 5.77699 7.32253 6.02033 6.98296 6.38482C6.64339 6.74927 6.43239 7.21485 6.38224 7.71045C6.38224 7.78567 6.38224 7.8609 6.38224 7.93612V23.5451C6.37214 23.918 6.22327 24.2738 5.96472 24.5427C5.70619 24.8117 5.35659 24.9746 4.98434 24.9994H0.796875V2.35701C0.819756 1.71459 1.09667 1.10751 1.56682 0.669098C2.03696 0.230692 2.66188 -0.00319473 3.30434 0.0188064L16.6503 0Z" fill="url(#paint1_linear_4441_69857)"/>
<path opacity="0.08" d="M12.3768 2.35787C12.2201 2.48951 12.0696 2.63369 11.9255 2.77787C11.5317 3.16856 11.1671 3.58759 10.8347 4.0316C10.7281 4.16951 10.6341 4.30742 10.5401 4.44533L10.4649 4.56443C10.3646 4.72115 10.2705 4.87787 10.1828 5.04085C10.1828 5.091 9.95083 5.62384 9.95083 5.66772H8.51531H8.26456C7.77467 5.75246 7.3259 5.99488 6.98639 6.3581C6.64694 6.7213 6.43543 7.1855 6.38397 7.67997C6.38397 7.75519 6.38397 7.83042 6.38397 7.90564V23.5146C6.37388 23.8875 6.22498 24.2433 5.96644 24.5123C5.70789 24.7812 5.3583 24.9441 4.98604 24.9689H3.375V4.69608C3.39788 4.05365 3.6748 3.44657 4.14494 3.00816C4.61508 2.56975 5.24001 2.33587 5.88246 2.35787H12.3768Z" fill="#010101"/>
<path opacity="0.08" d="M25.5982 11.3153C25.4918 13.3982 24.5951 15.362 23.0908 16.8066C21.6841 18.1699 19.8788 19.0484 17.9379 19.3141C17.8801 19.3228 17.8234 19.3375 17.7687 19.358C17.6881 19.3873 17.6036 19.4042 17.5179 19.4081C17.5179 18.963 17.5179 16.5245 17.5179 16.5245C18.2693 16.5314 19.0126 16.3694 19.6929 16.0504C20.3733 15.7313 20.9732 15.2636 21.4484 14.6815C22.2399 13.7733 22.6841 12.6139 22.7021 11.4093C22.7021 9.90137 22.1031 8.45519 21.0369 7.38889C19.9706 6.32266 18.5244 5.72362 17.0164 5.72362H9.91406C9.97926 5.51038 10.0567 5.30107 10.146 5.09675C10.2338 4.93377 10.3278 4.77078 10.4281 4.61407L10.5033 4.49496L10.7979 4.08123C11.132 3.63853 11.4965 3.2196 11.8887 2.8275C12.0329 2.68332 12.1833 2.54541 12.34 2.4075C12.5912 2.36677 12.8474 2.36677 13.0985 2.4075C13.7254 2.4075 14.3523 2.44511 15.0105 2.48272C18.3893 2.70213 22.1881 3.73645 24.0561 6.1875C25.1871 7.64704 25.7365 9.47404 25.5982 11.3153Z" fill="url(#paint2_linear_4441_69857)"/>
<path d="M16.059 25.7959V22.4171C14.823 22.4383 13.5941 22.6067 12.3981 22.9186L12.0094 23.0189C11.4458 23.1566 10.8911 23.3283 10.3482 23.5329C10.1978 23.5872 10.0473 23.6499 9.89688 23.721C9.75489 23.7768 9.61673 23.8417 9.48315 23.9153C9.45343 23.9213 9.42547 23.9342 9.40165 23.9529C9.30374 23.9955 9.20946 24.0458 9.11956 24.1034C8.96912 24.1849 8.81867 24.2726 8.67449 24.3667C8.53031 24.4607 8.33598 24.5923 8.16673 24.724C8.1031 24.7681 8.04242 24.8163 7.98494 24.8682C7.88445 24.9444 7.78823 25.026 7.69658 25.1126C7.57747 25.2255 7.45837 25.3383 7.34553 25.4637L7.27031 25.5452C7.2275 25.5866 7.18963 25.6329 7.15747 25.6831L6.86285 26.0667C6.5807 25.7018 6.84392 25.085 6.89407 24.7615C6.89407 24.6926 6.89407 24.8054 6.89407 24.7615C7.24881 23.0385 7.92156 21.582 8.9315 20.1416C9.77364 18.8317 10.8743 17.7075 12.1661 16.838C13.3356 16.6799 14.5177 16.638 15.6954 16.7126H16.0339V13.5156L27.5745 19.6589L16.059 25.7959Z" fill="url(#paint3_linear_4441_69857)"/>
<path d="M10.5628 36.8353C10.4939 36.898 4.79563 35.707 1.87443 32.1339C0.712916 30.7829 0.0520368 29.0731 0.00294604 27.2922C-0.0461448 25.5112 0.519546 23.7676 1.60488 22.3547C3.60458 19.6091 7.00848 17.9291 10.3434 17.1706C10.9703 17.0264 11.5456 16.9194 12.1725 16.8379C10.8806 17.7075 9.83151 18.8321 8.98938 20.1419C7.96991 21.576 7.26136 23.3542 6.89552 25.0753C6.89552 25.0063 6.89552 25.1192 6.89552 25.0753C6.84537 25.3987 6.85804 25.7462 6.85804 26.0783C4.97742 28.7739 5.3222 32.8359 7.19654 34.6915C8.25595 35.638 10.6318 36.7037 10.5628 36.8353Z" fill="url(#paint4_linear_4441_69857)"/>
<path opacity="0.08" d="M2.90495 26.5233C3.40017 24.1726 5.81988 21.5648 9.49957 20.6935C13.1793 19.8221 12.7969 19.8284 20.2817 19.4398C27.5909 19.0824 27.5972 19.6341 27.5972 19.6341L16.0566 25.8024V22.4174C14.8207 22.4386 13.5917 22.6069 12.3957 22.9189C10.8285 23.295 8.39002 23.9845 6.89181 25.9905C6.22283 26.9712 5.79274 28.0948 5.636 29.2715C5.47925 30.4483 5.60018 31.6453 5.98913 32.7669L5.01749 33.2872C5.01749 33.2872 2.41599 28.8741 2.90495 26.5233Z" fill="url(#paint5_linear_4441_69857)"/>
<path d="M26.7891 32.8232C24.4133 36.0829 20.1021 37.8083 16.2344 38.3098C17.5262 37.4402 18.5938 36.3459 19.436 35.0361C20.4458 33.5957 21.1499 31.9635 21.5046 30.2405C21.5046 30.1966 21.5046 30.1339 21.5046 30.065C21.5617 29.7338 21.5764 29.3968 21.5485 29.062C22.1919 28.0873 22.6023 26.9776 22.7479 25.8188C22.8936 24.66 22.7706 23.4832 22.3885 22.3796L23.3601 21.8593L24.5763 21.2324C25.2909 21.7464 25.9375 22.3488 26.5007 23.0253C27.6697 24.3755 28.3369 26.0877 28.3894 27.8729C28.442 29.6581 27.8766 31.4066 26.7891 32.8232Z" fill="url(#paint6_linear_4441_69857)"/>
<path d="M21.5446 30.0341C21.5446 30.1031 21.5446 30.1658 21.5446 30.2097C21.1899 31.9327 20.4859 33.5648 19.4759 35.0052C18.6338 36.3151 17.5331 37.4392 16.2413 38.3088C15.0719 38.4669 13.8897 38.5088 12.712 38.4341H12.3296V41.6312L0.789062 35.4879L12.3296 29.3446V32.7297C13.5655 32.7085 14.7945 32.5401 15.9905 32.2282L16.3792 32.1279C16.5317 32.0931 16.6362 32.0652 16.7679 32.0276C17.1691 31.9147 17.5953 31.7831 18.0216 31.6138C18.172 31.5596 18.3225 31.4969 18.4729 31.4258L18.7488 31.3067C18.8238 31.2729 18.897 31.2352 18.9682 31.1938L19.2502 31.0434C19.4013 30.9662 19.5478 30.8803 19.689 30.7864C19.7734 30.7365 19.855 30.6821 19.9335 30.6234C20.0232 30.5663 20.1091 30.5035 20.1905 30.4353L20.2846 30.3664L20.3723 30.2912C20.4743 30.2168 20.5707 30.1351 20.6607 30.0467L20.8362 29.8774C20.9124 29.8109 20.9798 29.758 21.0431 29.6894L21.1183 29.6079C21.2536 29.4683 21.3638 29.3203 21.4878 29.1571L21.5446 29.0625C21.5844 29.3852 21.5844 29.7115 21.5446 30.0341Z" fill="url(#paint7_linear_4441_69857)"/>
<path opacity="0.08" d="M25.4876 28.6171C24.9923 30.9678 22.5664 33.5755 18.8867 34.4468C15.207 35.3182 15.5956 35.3119 8.10457 35.7006C0.795331 36.0579 0.789062 35.5063 0.789062 35.5063L12.3296 29.363V32.748C13.5655 32.7268 14.7945 32.5585 15.9905 32.2466L16.6801 32.0711C16.9371 32.0021 17.1941 31.9269 17.4449 31.8454C17.6956 31.7639 17.984 31.6573 18.2535 31.5508C18.5231 31.4442 18.8052 31.3126 19.0685 31.1747C19.3478 31.0331 19.6179 30.874 19.8771 30.6982C20.142 30.5178 20.3953 30.3211 20.6356 30.1089C20.8937 29.8844 21.1308 29.6368 21.344 29.3692C21.5804 29.0883 21.7902 28.7862 21.9708 28.4666C22.1282 28.1737 22.2645 27.87 22.3783 27.5576C22.4876 27.2298 22.5734 26.8946 22.6353 26.5547C22.7078 26.2362 22.7622 25.9139 22.7983 25.5893C22.8172 25.2614 22.8172 24.9329 22.7983 24.6051C22.7856 24.2838 22.7542 23.9636 22.7043 23.646C22.6591 23.3365 22.5921 23.0307 22.5037 22.7308L22.3908 22.3797L23.3625 21.8594C23.3625 21.8594 25.9765 26.2663 25.4876 28.6171Z" fill="url(#paint8_linear_4441_69857)"/>
<defs>
<linearGradient id="paint0_linear_4441_69857" x1="25.1093" y1="18.913" x2="15.512" y2="0.921903" gradientUnits="userSpaceOnUse">
<stop stop-color="#1AA1D3"/>
<stop offset="0.19" stop-color="#1B9BCF"/>
<stop offset="0.44" stop-color="#1C89C3"/>
<stop offset="0.74" stop-color="#1F6CB1"/>
<stop offset="0.89" stop-color="#215AA5"/>
</linearGradient>
<linearGradient id="paint1_linear_4441_69857" x1="9.03388" y1="0.106567" x2="1.12284" y2="22.191" gradientUnits="userSpaceOnUse">
<stop offset="0.17" stop-color="#3A78BD"/>
<stop offset="0.63" stop-color="#274393"/>
<stop offset="1" stop-color="#253062"/>
</linearGradient>
<linearGradient id="paint2_linear_4441_69857" x1="12.8791" y1="2.30093" x2="25.1594" y2="18.6183" gradientUnits="userSpaceOnUse">
<stop stop-color="#393939" stop-opacity="0"/>
<stop offset="0.43" stop-color="#010101" stop-opacity="0.8"/>
<stop offset="0.98" stop-opacity="0"/>
</linearGradient>
<linearGradient id="paint3_linear_4441_69857" x1="24.5027" y1="16.1986" x2="6.66213" y2="23.4953" gradientUnits="userSpaceOnUse">
<stop stop-color="#F1CC1A"/>
<stop offset="0.17" stop-color="#F0C81A"/>
<stop offset="0.34" stop-color="#EEBC1A"/>
<stop offset="0.51" stop-color="#E9A719"/>
<stop offset="0.68" stop-color="#E38B19"/>
<stop offset="0.85" stop-color="#DC6618"/>
<stop offset="1" stop-color="#D44017"/>
</linearGradient>
<linearGradient id="paint4_linear_4441_69857" x1="9.19625" y1="18.7691" x2="4.51354" y2="33.8515" gradientUnits="userSpaceOnUse">
<stop stop-color="#F1CC1A"/>
<stop offset="0.18" stop-color="#EDB91A"/>
<stop offset="0.55" stop-color="#E38619"/>
<stop offset="1" stop-color="#D44017"/>
</linearGradient>
<linearGradient id="paint5_linear_4441_69857" x1="22.6763" y1="16.3807" x2="2.5163" y2="32.0335" gradientUnits="userSpaceOnUse">
<stop stop-color="white" stop-opacity="0"/>
<stop offset="0.5" stop-color="#010101" stop-opacity="0.8"/>
<stop offset="1" stop-opacity="0"/>
</linearGradient>
<linearGradient id="paint6_linear_4441_69857" x1="26.5822" y1="23.602" x2="20.0754" y2="37.2552" gradientUnits="userSpaceOnUse">
<stop stop-color="#1AA1D3"/>
<stop offset="0.19" stop-color="#1B9BCF"/>
<stop offset="0.44" stop-color="#1C89C3"/>
<stop offset="0.74" stop-color="#1F6CB1"/>
<stop offset="0.89" stop-color="#215AA5"/>
</linearGradient>
<linearGradient id="paint7_linear_4441_69857" x1="20.7986" y1="33.5634" x2="1.28429" y2="38.0016" gradientUnits="userSpaceOnUse">
<stop offset="0.17" stop-color="#3A78BD"/>
<stop offset="0.63" stop-color="#274393"/>
<stop offset="1" stop-color="#253062"/>
</linearGradient>
<linearGradient id="paint8_linear_4441_69857" x1="24.9485" y1="21.3453" x2="6.90726" y2="38.7911" gradientUnits="userSpaceOnUse">
<stop stop-color="white" stop-opacity="0"/>
<stop offset="0.5" stop-color="#010101" stop-opacity="0.8"/>
<stop offset="1" stop-opacity="0"/>
</linearGradient>
</defs>
</svg>
